<?xml version="1.0" encoding="utf-8"?>
<svg viewBox="0 0 842 312" xmlns="http://www.w3.org/2000/svg">
  <g transform="matrix(0.1, 0, 0, -0.1, 0, 312)" fill="#000000" stroke="none">
    <path d="M2480 2606 c-50 -26 -144 -105 -390 -328 -179 -162 -386 -358 -460 -435 l-135 -141 -86 83 c-65 63 -94 84 -120 87 -19 3 -42 8 -51 12 -13 6 -33 -7 -78 -50 -33 -31 -60 -65 -60 -75 0 -10 17 -31 38 -46 45 -34 52 -42 52 -68 0 -11 22 -42 49 -70 27 -27 79 -95 117 -150 103 -152 138 -182 162 -139 8 15 12 14 39 -5 16 -12 36 -19 44 -16 7 3 37 51 64 107 63 129 186 316 350 533 182 242 249 319 432 502 96 95 163 170 163 181 0 22 -30 52 -51 52 -8 -1 -43 -16 -79 -34z" style="fill: rgb(255, 255, 255);"/>
    <path d="M1310 2399 c-103 -28 -212 -75 -257 -110 -161 -129 -253 -259 -320 -454 l-37 -110 -1 -175 c0 -258 28 -347 164 -506 110 -130 142 -145 471 -230 166 -43 180 -46 280 -41 101 4 110 6 246 64 354 150 484 271 562 523 19 62 19 71 6 160 -24 159 -58 236 -141 317 -56 55 -81 64 -104 36 -8 -9 -29 -22 -46 -30 -32 -13 -33 -16 -33 -68 0 -45 5 -60 28 -87 92 -109 137 -205 130 -279 -14 -142 -139 -259 -399 -371 -124 -53 -306 -100 -394 -102 -63 -1 -79 3 -158 41 -104 50 -155 84 -251 168 -92 80 -124 127 -147 216 -33 126 -17 383 31 512 39 104 137 210 292 316 156 106 362 100 538 -15 50 -33 83 -39 100 -19 12 15 11 22 -5 53 -11 20 -38 49 -60 64 -135 95 -164 113 -207 130 -65 24 -190 23 -288 -3z" style="fill: rgb(255, 255, 255);"/>
    <path d="M2780 1960 l0 -340 260 0 260 0 0 60 0 60 -185 0 -185 0 0 85 0 85 160 0 160 0 0 55 0 54 -157 3 -158 3 -3 78 -3 77 181 0 180 0 0 60 0 60 -255 0 -255 0 0 -340z" style="fill: rgb(255, 255, 255);"/>
    <path d="M3400 2240 l0 -60 186 -2 185 -3 -185 -224 -186 -224 0 -53 0 -54 295 0 295 0 0 60 0 60 -195 0 c-107 0 -195 3 -195 8 0 4 83 108 185 231 184 222 185 224 185 272 l0 49 -285 0 -285 0 0 -60z" style="fill: rgb(255, 255, 255);"/>
    <path d="M2780 1120 l0 -340 75 0 75 0 0 340 0 340 -75 0 -75 0 0 -340z" style="fill: rgb(255, 255, 255);"/>
    <path d="M5640 1355 l0 -65 -40 0 -40 0 0 -55 0 -55 40 0 40 0 0 -134 c0 -74 5 -147 11 -163 13 -35 46 -71 82 -89 34 -18 133 -20 181 -4 l35 11 -17 47 -18 47 -46 -3 c-37 -3 -51 1 -67 17 -19 19 -21 33 -21 146 l0 125 65 0 65 0 0 55 0 55 -65 0 -65 0 0 65 0 65 -70 0 -70 0 0 -65z" style="fill: rgb(255, 255, 255);"/>
    <path d="M3330 1299 c-19 -6 -49 -22 -67 -35 -40 -31 -43 -30 -43 6 l0 30 -65 0 -65 0 0 -260 0 -260 70 0 70 0 0 138 c0 159 9 201 51 236 42 36 116 36 156 2 l28 -24 3 -176 3 -176 76 0 75 0 -4 193 c-4 205 -9 228 -60 273 -57 52 -155 75 -228 53z" style="fill: rgb(255, 255, 255);"/>
    <path d="M4500 1301 c-130 -30 -210 -128 -210 -259 0 -109 45 -183 141 -231 55 -28 72 -31 148 -31 88 0 151 19 193 57 16 15 15 18 -18 59 l-36 43 -29 -21 c-43 -32 -133 -36 -187 -9 -34 18 -72 62 -72 86 0 3 91 5 201 5 l202 0 -5 65 c-8 99 -67 183 -153 220 -44 18 -131 26 -175 16z m126 -117 c34 -16 64 -58 64 -89 0 -13 -19 -15 -130 -15 -71 0 -130 2 -130 5 0 3 6 21 14 40 28 66 110 93 182 59z" style="fill: rgb(255, 255, 255);"/>
    <path d="M5176 1296 c-22 -8 -52 -24 -68 -36 l-28 -21 0 31 0 30 -70 0 -70 0 0 -260 0 -260 75 0 75 0 0 150 c0 163 9 204 51 234 30 21 112 21 144 0 36 -23 45 -71 45 -236 l0 -148 71 0 71 0 -4 193 c-3 183 -4 194 -28 235 -47 82 -170 123 -264 88z" style="fill: rgb(255, 255, 255);"/>
    <path d="M6201 1300 c-196 -41 -279 -278 -148 -426 58 -66 122 -94 219 -94 88 0 144 20 202 71 60 52 81 101 80 189 -1 94 -19 134 -83 192 -68 62 -172 88 -270 68z m145 -129 c59 -36 82 -135 48 -207 -17 -35 -81 -74 -122 -74 -41 0 -91 28 -112 62 -24 40 -27 126 -5 169 34 64 128 89 191 50z" style="fill: rgb(255, 255, 255);"/>
    <path d="M6925 1301 c-43 -11 -77 -30 -97 -55 -17 -21 -18 -21 -18 17 l0 37 -70 0 -70 0 0 -260 0 -260 69 0 69 0 4 148 c4 159 12 190 59 225 15 10 47 22 73 24 l46 6 0 63 c0 70 -1 70 -65 55z" style="fill: rgb(255, 255, 255);"/>
    <path d="M3682 1291 c2 -5 50 -122 108 -260 l105 -251 76 0 76 0 107 253 c58 138 106 256 106 260 0 4 -30 7 -67 5 l-67 -3 -71 -168 c-39 -93 -75 -170 -80 -170 -5 -1 -41 76 -79 171 l-70 172 -74 0 c-41 0 -72 -4 -70 -9z" style="fill: rgb(255, 255, 255);"/>
    <path d="M7060 1233 c15 -38 66 -156 113 -264 81 -189 84 -198 69 -222 -28 -45 -84 -59 -134 -33 -27 14 -28 14 -53 -31 -14 -25 -25 -49 -25 -53 0 -20 91 -42 158 -38 57 3 76 8 106 32 51 39 63 60 165 301 49 116 105 247 125 293 l36 83 -71 -3 -70 -3 -65 -155 c-35 -85 -69 -166 -75 -180 -10 -22 -17 -9 -86 158 l-76 182 -73 0 -73 0 29 -67z" style="fill: rgb(255, 255, 255);"/>
  </g>
</svg>